<svg width="1240" height="1240" xmlns="http://www.w3.org/2000/svg">
 <g>
  <title>Layer 1</title>
  <rect stroke="#ffffff" fill="#4e73df" x="29.375" y="29.375" width="1181.25001" height="1181.25005" id="svg_1" rx="100" stroke-width="50"/>
  <path id="svg_2" fill-rule="evenodd" d="m511.58157,294.76361a27.10459,27.10459 0 0 1 25.47678,17.89001l191.36005,526.15375l82.94171,-228.11261a27.10459,27.10459 0 0 1 25.47668,-17.7807l189.73206,0a27.10459,27.10459 0 0 1 0,54.20923l-170.76038,0l-101.91333,280.26044a27.10459,27.10459 0 0 1 -50.95337,0l-191.3602,-526.15393l-82.94159,228.05969a27.10459,27.10459 0 0 1 -25.47668,17.8338l-189.73212,0a27.10459,27.10459 0 0 1 0,-54.20923l170.76031,0l101.91339,-280.26041a27.10459,27.10459 0 0 1 25.47668,-17.89001l0,-0.00003z" stroke="null" fill="#ffffff"/>
 </g>

</svg>